<?xml version="1.0" standalone="no"?>
<!DOCTYPE svg PUBLIC "-//W3C//DTD SVG 20010904//EN"
 "http://www.w3.org/TR/2001/REC-SVG-20010904/DTD/svg10.dtd">
<svg version="1.0" xmlns="http://www.w3.org/2000/svg"
 width="150.000000pt" height="150.000000pt" viewBox="0 0 150.000000 150.000000"
 preserveAspectRatio="xMidYMid meet">
<metadata>
Created by potrace 1.14, written by Peter Selinger 2001-2017
</metadata>
<g transform="translate(0.000000,150.000000) scale(0.100000,-0.100000)"
fill="#000000" stroke="none">
<path d="M606 1380 c-71 -12 -71 -13 -92 -79 l-19 -61 -47 6 c-45 6 -49 4 -80
-28 -99 -104 -148 -204 -170 -340 -11 -76 -4 -188 13 -188 5 0 9 19 10 43 l1
42 9 -38 c5 -21 19 -61 31 -89 19 -43 23 -48 33 -34 11 15 14 13 31 -11 l18
-28 7 30 c5 26 7 28 13 10 26 -71 84 -170 114 -197 46 -39 125 -76 182 -83 72
-10 75 -12 54 -36 -10 -12 -39 -33 -64 -47 -65 -38 -209 -160 -226 -193 -32
-63 -60 -59 456 -59 l470 0 0 23 c0 101 -91 185 -255 237 -55 17 -155 68 -155
79 0 12 19 25 70 46 82 34 218 195 221 262 0 11 3 13 6 6 9 -24 31 -13 46 25
9 20 16 29 16 20 1 -25 13 -22 36 10 17 23 20 42 19 122 -2 127 -19 202 -63
275 -126 207 -410 321 -685 275z"/>
</g>
</svg>
